<?xml version="1.0" encoding="UTF-8" standalone="no"?>
<svg width="202px" height="50px" viewBox="0 0 202 50" version="1.1" xmlns="http://www.w3.org/2000/svg" xmlns:xlink="http://www.w3.org/1999/xlink" xmlns:sketch="http://www.bohemiancoding.com/sketch/ns">
    <!-- Generator: Sketch 3.3.3 (12081) - http://www.bohemiancoding.com/sketch -->
    <title>Stabilitas Copy 2 + Lighthouse Copy 2</title>
    <desc>Created with Sketch.</desc>
    <defs></defs>
    <g id="Page-1" stroke="none" stroke-width="1" fill="none" fill-rule="evenodd" sketch:type="MSPage">
        <g id="Stabilitas-Copy-2-+-Lighthouse-Copy-2" sketch:type="MSLayerGroup" fill="#FFFFFF">
            <g id="Stabilitas-Copy-2" transform="translate(40.000000, 17.142857)" sketch:type="MSShapeGroup">
                <path d="M9.86985704,10.4914286 C9.86985704,11.1657143 9.75549022,11.8057143 9.52675656,12.3885714 C9.29802291,12.9828571 8.95492244,13.4971429 8.50889182,13.9314286 C8.0628612,14.3657143 7.51390044,14.72 6.87344621,14.9714286 C6.23299199,15.2228571 5.48960762,15.3485714 4.66616648,15.3485714 C4.57467302,15.3485714 4.47174288,15.3485714 4.35737605,15.3371429 C3.01928419,15.3371429 1.58969887,15.0742857 0.0457467302,14.5485714 L0.0457467302,14.1828571 L0.0457467302,10.6971429 L0.137240191,10.6971429 L0.388847207,10.6971429 L1.2465984,10.6971429 C1.5096421,10.6971429 1.66975565,10.8228571 1.72693907,11.0857143 C1.76124911,11.2685714 1.81843253,11.84 1.90992599,12.8 C2.50463348,12.9828571 3.45387813,13.0742857 4.74622326,13.0742857 C5.54679104,13.0742857 6.15293521,12.8914286 6.58752915,12.5142857 C7.02212309,12.1371429 7.23942005,11.6 7.23942005,10.8914286 C7.23942005,10.5028571 7.13648991,10.1714286 6.94206631,9.93142857 C6.74764271,9.68 6.48459901,9.47428571 6.16437189,9.30285714 C5.84414478,9.13142857 5.46673426,8.99428571 5.05501369,8.86857143 C4.63185643,8.75428571 4.20869918,8.61714286 3.78554192,8.48 C3.36238467,8.34285714 2.93922742,8.17142857 2.51607016,7.97714286 C2.10434959,7.78285714 1.72693907,7.53142857 1.40671195,7.22285714 C1.08648484,6.91428571 0.823441144,6.52571429 0.62901754,6.05714286 C0.434593937,5.58857143 0.331663794,5.01714286 0.331663794,4.33142857 C0.331663794,3.78285714 0.446030619,3.25714286 0.663327588,2.73142857 C0.880624556,2.21714286 1.20085167,1.74857143 1.61257224,1.34857143 C2.02429281,0.948571429 2.53894353,0.628571429 3.15652438,0.388571429 C3.76266856,0.148571429 4.46030619,0.0228571429 5.23800061,0.0228571429 C6.71333266,0.0228571429 8.14291798,0.308571429 9.53819325,0.868571429 L9.53819325,4.69714286 L9.44669979,4.69714286 L9.19509277,4.69714286 L8.34877826,4.69714286 C8.08573456,4.69714286 7.92562101,4.57142857 7.8684376,4.30857143 C7.83412755,4.12571429 7.77694413,3.56571429 7.68545067,2.62857143 C7.15936328,2.4 6.3587955,2.27428571 5.27231066,2.27428571 C4.88346345,2.27428571 4.55179966,2.32 4.26588259,2.41142857 C3.97996553,2.50285714 3.73979519,2.64 3.53393491,2.8 C3.3395113,2.97142857 3.19083443,3.16571429 3.08790429,3.39428571 C2.99641083,3.62285714 2.93922742,3.87428571 2.93922742,4.16 C2.93922742,4.51428571 3.04215756,4.81142857 3.23658116,5.04 C3.43100477,5.28 3.69404846,5.47428571 4.01427558,5.64571429 C4.33450269,5.81714286 4.71191321,5.96571429 5.12363378,6.09142857 C5.53535435,6.21714286 5.95851161,6.36571429 6.39310555,6.51428571 C6.82769948,6.66285714 7.25085674,6.83428571 7.66257731,7.02857143 C8.07429788,7.22285714 8.45170841,7.47428571 8.77193552,7.77142857 C9.09216263,8.06857143 9.35520633,8.44571429 9.54962993,8.88 C9.7669269,9.33714286 9.86985704,9.86285714 9.86985704,10.4914286 L9.86985704,10.4914286 Z" id="Shape"></path>
                <path d="M27.5280949,0.194285714 L27.5280949,3.73714286 L27.4366014,3.73714286 L27.1849944,3.73714286 L26.3272432,3.73714286 C26.0641995,3.73714286 25.904086,3.61142857 25.8469026,3.34857143 C25.8240292,3.22285714 25.7897192,2.93714286 25.7439724,2.48 L22.6903782,2.48 L22.6903782,13.12 C22.9534219,13.1657143 23.1478455,13.2 23.307959,13.2228571 C23.4566359,13.2457143 23.5595661,13.2685714 23.6167495,13.28 C23.6739329,13.2914286 23.7196796,13.3028571 23.742553,13.3028571 C24.0856535,13.3714286 24.2572037,13.5885714 24.2572037,13.9542857 L24.2572037,15.1771429 L22.6903782,15.1771429 L19.8998276,15.1771429 L18.3330021,15.1771429 L18.3330021,13.9542857 C18.3330021,13.6 18.5045524,13.3828571 18.8476528,13.3028571 C18.8819629,13.3028571 18.9162729,13.2914286 18.9734564,13.28 C19.0306398,13.2685714 19.1335699,13.2457143 19.2822468,13.2228571 C19.4309237,13.2 19.6367839,13.1542857 19.8998276,13.12 L19.8998276,2.48 L16.8347967,2.48 C16.78905,2.93714286 16.7547399,3.22285714 16.7318666,3.34857143 C16.6746832,3.61142857 16.5145696,3.73714286 16.2515259,3.73714286 L15.3937747,3.73714286 L15.1421677,3.73714286 L15.0506742,3.73714286 L15.0506742,0.194285714 L15.3594647,0.194285714 L15.3937747,0.194285714 L27.1849944,0.194285714 L27.1964311,0.194285714 L27.5280949,0.194285714 L27.5280949,0.194285714 Z" id="Shape"></path>
                <path d="M46.8217784,14.1257143 L46.8217784,15.1885714 L46.0898307,15.1885714 L44.4658218,15.1885714 L44.1227213,15.1885714 L43.9397344,15.1885714 L41.7667647,15.1885714 L41.7667647,14.1257143 C41.7667647,13.8857143 41.9040049,13.7028571 42.1784852,13.6 C42.224232,13.5771429 42.3614722,13.52 42.5902058,13.4285714 L42.510149,13.2114286 L41.7667647,11.1771429 L35.7968164,11.1771429 L35.019122,13.3028571 L34.9733752,13.44 C35.2021089,13.5314286 35.3393491,13.5885714 35.3850958,13.6114286 C35.6595762,13.7257143 35.7968164,13.8971429 35.7968164,14.1371429 L35.7968164,15.2 L33.6238467,15.2 L33.4294231,15.2 L33.0863226,15.2 L31.450877,15.2 L30.7189293,15.2 L30.7189293,14.1371429 C30.7189293,13.8971429 30.8561695,13.7142857 31.1306499,13.6114286 C31.2450167,13.5657143 31.6224273,13.4057143 32.2628815,13.1314286 L37.3407685,0.205714286 L40.1885025,0.205714286 L45.2663895,13.1314286 C45.9182804,13.4057143 46.295691,13.5657143 46.3986211,13.6114286 C46.6845382,13.7028571 46.8217784,13.8857143 46.8217784,14.1257143 L46.8217784,14.1257143 Z M36.5058907,9.18857143 L41.0462537,9.18857143 L39.342188,4.53714286 C39.2621312,4.30857143 39.1706377,4.04571429 39.0677076,3.76 C38.9647775,3.46285714 38.873284,3.13142857 38.7703538,2.77714286 C38.6674237,3.13142857 38.5759302,3.46285714 38.4844368,3.76 C38.3929433,4.06857143 38.3014499,4.33142857 38.2099564,4.56 L36.5058907,9.18857143 L36.5058907,9.18857143 Z" id="Shape"></path>
                <path d="M64.8688634,10.7771429 C64.8688634,11.4171429 64.7430599,12 64.5028896,12.5371429 C64.2627193,13.0742857 63.9081821,13.5428571 63.4507148,13.9314286 C62.9818108,14.32 62.4214134,14.6285714 61.7352124,14.8457143 C61.0604481,15.0628571 60.2827537,15.1771429 59.4135659,15.1771429 L53.752408,15.1771429 L52.1855825,15.1771429 L52.1855825,13.9542857 C52.1855825,13.6 52.3571327,13.3828571 52.7002332,13.3028571 C52.7345432,13.3028571 52.7688533,13.2914286 52.8260367,13.28 C52.8832201,13.2685714 52.9861503,13.2457143 53.1348271,13.2228571 C53.283504,13.2 53.4893643,13.1542857 53.752408,13.12 L53.752408,2.24 C53.4893643,2.19428571 53.283504,2.16 53.1348271,2.12571429 C52.9861503,2.10285714 52.8832201,2.08 52.8260367,2.06857143 C52.7688533,2.05714286 52.7231066,2.04571429 52.7002332,2.04571429 C52.3571327,1.97714286 52.1855825,1.76 52.1855825,1.39428571 L52.1855825,0.171428571 L53.752408,0.171428571 L58.9332252,0.171428571 C59.9167799,0.171428571 60.7516577,0.262857143 61.4492953,0.457142857 C62.146933,0.64 62.7187671,0.914285714 63.1647977,1.25714286 C63.6108283,1.6 63.9424921,2.02285714 64.1483524,2.51428571 C64.3542127,3.00571429 64.4571429,3.55428571 64.4571429,4.17142857 C64.4571429,4.52571429 64.3999594,4.85714286 64.2970293,5.17714286 C64.1940992,5.49714286 64.0339856,5.79428571 63.8166886,6.08 C63.5993917,6.36571429 63.3249113,6.61714286 62.9818108,6.84571429 C62.650147,7.07428571 62.2498631,7.26857143 61.7809591,7.42857143 C63.839562,7.90857143 64.8688634,9.01714286 64.8688634,10.7771429 L64.8688634,10.7771429 Z M56.5429585,6.68571429 L58.7731116,6.68571429 C59.7223563,6.68571429 60.4428673,6.51428571 60.9346446,6.17142857 C61.426422,5.82857143 61.6665923,5.28 61.6665923,4.52571429 C61.6665923,3.74857143 61.4492953,3.18857143 61.0032647,2.85714286 C60.5572341,2.52571429 59.8710332,2.35428571 58.9332252,2.35428571 L56.5429585,2.35428571 L56.5429585,6.68571429 L56.5429585,6.68571429 Z M62.1126229,10.72 C62.1126229,10.4 62.0554395,10.1028571 61.9525094,9.84 C61.8495792,9.57714286 61.6894657,9.36 61.460732,9.17714286 C61.2434351,8.99428571 60.957518,8.85714286 60.6144175,8.75428571 C60.271317,8.66285714 59.8481598,8.60571429 59.3563824,8.60571429 L56.5315218,8.60571429 L56.5315218,13.0057143 L59.3678191,13.0057143 C59.8824698,13.0057143 60.3170638,12.9485714 60.6716009,12.8228571 C61.0261381,12.6971429 61.3006185,12.5371429 61.5064788,12.32 C61.712339,12.1142857 61.8724526,11.8742857 61.9639461,11.6 C62.0668762,11.3257143 62.1126229,11.0285714 62.1126229,10.72 L62.1126229,10.72 Z" id="Shape"></path>
                <path d="M76.9917469,2.08 C76.9345635,2.09142857 76.8316334,2.11428571 76.6829565,2.13714286 C76.5342796,2.16 76.3284193,2.20571429 76.0653756,2.24 L76.0653756,13.12 C76.3284193,13.1657143 76.5228429,13.2 76.6829565,13.2228571 C76.8316334,13.2457143 76.9345635,13.2685714 76.9917469,13.28 C77.0489303,13.2914286 77.0946771,13.3028571 77.1175504,13.3028571 C77.4606509,13.3714286 77.6322012,13.5885714 77.6322012,13.9542857 L77.6322012,15.1771429 L76.0653756,15.1771429 L73.2633884,15.1771429 L71.6965629,15.1771429 L71.6965629,13.9542857 C71.6965629,13.6 71.8681132,13.3828571 72.2112136,13.3028571 C72.2455237,13.3028571 72.2798337,13.2914286 72.3370171,13.28 C72.3942005,13.2685714 72.4971307,13.2457143 72.6458076,13.2228571 C72.7944844,13.2 73.0003447,13.1542857 73.2633884,13.12 L73.2633884,2.24 C73.0003447,2.19428571 72.7944844,2.16 72.6458076,2.13714286 C72.4971307,2.11428571 72.3942005,2.09142857 72.3370171,2.08 C72.2798337,2.06857143 72.234087,2.05714286 72.2112136,2.05714286 C71.8681132,1.98857143 71.6965629,1.77142857 71.6965629,1.40571429 L71.6965629,0.182857143 L73.2633884,0.182857143 L76.0653756,0.182857143 L77.6322012,0.182857143 L77.6322012,1.40571429 C77.6322012,1.76 77.4606509,1.97714286 77.1175504,2.05714286 C77.0832404,2.06857143 77.0489303,2.08 76.9917469,2.08 L76.9917469,2.08 Z" id="Shape"></path>
                <path d="M94.9359019,11.6 L94.9359019,13.6914286 L94.9359019,14.0914286 L94.9359019,15.1771429 L94.4441245,15.1771429 L94.3869411,15.1771429 L85.6493156,15.1771429 L84.0824901,15.1771429 L84.0824901,13.9542857 C84.0824901,13.6 84.2540404,13.3828571 84.5971408,13.3028571 C84.6314509,13.3028571 84.6657609,13.2914286 84.7229443,13.28 C84.7801278,13.2685714 84.8830579,13.2457143 85.0317348,13.2228571 C85.1804116,13.2 85.3862719,13.1542857 85.6493156,13.12 L85.6493156,2.24 C85.3862719,2.19428571 85.1804116,2.16 85.0317348,2.13714286 C84.8830579,2.11428571 84.7801278,2.09142857 84.7229443,2.08 C84.6657609,2.06857143 84.6200142,2.05714286 84.5971408,2.05714286 C84.2540404,1.98857143 84.0824901,1.77142857 84.0824901,1.40571429 L84.0824901,0.182857143 L85.6493156,0.182857143 L88.4398662,0.182857143 L90.0066917,0.182857143 L90.0066917,1.40571429 C90.0066917,1.76 89.8351414,1.97714286 89.492041,2.05714286 C89.4577309,2.05714286 89.4234209,2.06857143 89.3662375,2.08 C89.309054,2.09142857 89.2061239,2.11428571 89.057447,2.13714286 C88.9087702,2.16 88.7029099,2.20571429 88.4513028,2.24 L88.4513028,12.8685714 L93.2775829,12.8685714 C93.3233296,12.3428571 93.346203,12.0457143 93.3576397,11.9657143 C93.4148231,11.7028571 93.5749366,11.5771429 93.8379803,11.5771429 L94.9359019,11.5771429 L94.9359019,11.6 Z" id="Shape"></path>
                <path d="M106.681375,2.08 C106.624191,2.09142857 106.521261,2.11428571 106.372584,2.13714286 C106.223908,2.16 106.018047,2.20571429 105.755004,2.24 L105.755004,13.12 C106.018047,13.1657143 106.223908,13.2 106.372584,13.2228571 C106.521261,13.2457143 106.624191,13.2685714 106.681375,13.28 C106.738558,13.2914286 106.784305,13.3028571 106.807178,13.3028571 C107.150279,13.3714286 107.321829,13.5885714 107.321829,13.9542857 L107.321829,15.1771429 L105.755004,15.1771429 L102.953016,15.1771429 L101.386191,15.1771429 L101.386191,13.9542857 C101.386191,13.6 101.557741,13.3828571 101.900842,13.3028571 C101.935152,13.3028571 101.969462,13.2914286 102.026645,13.28 C102.083828,13.2685714 102.186759,13.2457143 102.335435,13.2228571 C102.484112,13.2 102.689973,13.1542857 102.953016,13.12 L102.953016,2.24 C102.689973,2.19428571 102.484112,2.16 102.335435,2.13714286 C102.186759,2.11428571 102.083828,2.09142857 102.026645,2.08 C101.969462,2.06857143 101.923715,2.05714286 101.900842,2.05714286 C101.557741,1.98857143 101.386191,1.77142857 101.386191,1.40571429 L101.386191,0.182857143 L102.953016,0.182857143 L105.755004,0.182857143 L107.321829,0.182857143 L107.321829,1.40571429 C107.321829,1.76 107.150279,1.97714286 106.807178,2.05714286 C106.784305,2.06857143 106.738558,2.08 106.681375,2.08 L106.681375,2.08 Z" id="Shape"></path>
                <path d="M126.146609,0.194285714 L126.146609,3.73714286 L126.055115,3.73714286 L125.803508,3.73714286 L124.945757,3.73714286 C124.682713,3.73714286 124.5226,3.61142857 124.465416,3.34857143 C124.442543,3.22285714 124.408233,2.93714286 124.362486,2.48 L121.308892,2.48 L121.308892,13.12 C121.571936,13.1657143 121.766359,13.2 121.926473,13.2228571 C122.086586,13.2457143 122.17808,13.2685714 122.235263,13.28 C122.292447,13.2914286 122.338193,13.3028571 122.361067,13.3028571 C122.704167,13.3714286 122.875717,13.5885714 122.875717,13.9542857 L122.875717,15.1771429 L121.308892,15.1771429 L118.518341,15.1771429 L116.951516,15.1771429 L116.951516,13.9542857 C116.951516,13.6 117.123066,13.3828571 117.466166,13.3028571 C117.500477,13.3028571 117.534787,13.2914286 117.59197,13.28 C117.649153,13.2685714 117.752084,13.2457143 117.90076,13.2228571 C118.049437,13.2 118.255298,13.1542857 118.518341,13.12 L118.518341,2.48 L115.45331,2.48 C115.407564,2.93714286 115.373254,3.22285714 115.35038,3.34857143 C115.293197,3.61142857 115.133083,3.73714286 114.87004,3.73714286 L114.012288,3.73714286 L113.760681,3.73714286 L113.669188,3.73714286 L113.669188,0.194285714 L113.977978,0.194285714 L114.012288,0.194285714 L125.803508,0.194285714 L125.814945,0.194285714 L126.146609,0.194285714 L126.146609,0.194285714 Z" id="Shape"></path>
                <path d="M145.977816,14.1257143 L145.977816,15.1885714 L145.245868,15.1885714 L143.621859,15.1885714 L143.278759,15.1885714 L143.095772,15.1885714 L140.922802,15.1885714 L140.922802,14.1257143 C140.922802,13.8857143 141.060043,13.7028571 141.334523,13.6 C141.38027,13.5771429 141.51751,13.52 141.746244,13.4285714 L141.666187,13.2114286 L140.922802,11.1771429 L134.952854,11.1771429 L134.17516,13.3028571 L134.129413,13.44 C134.358147,13.5314286 134.495387,13.5885714 134.541134,13.6114286 C134.815614,13.7257143 134.952854,13.8971429 134.952854,14.1371429 L134.952854,15.2 L132.791321,15.2 L132.596897,15.2 L132.253797,15.2 L130.606915,15.2 L129.874967,15.2 L129.874967,14.1371429 C129.874967,13.8971429 130.012207,13.7142857 130.286688,13.6114286 C130.401054,13.5657143 130.778465,13.4057143 131.418919,13.1314286 L136.496806,0.205714286 L139.34454,0.205714286 L144.422427,13.1314286 C145.074318,13.4057143 145.451729,13.5657143 145.554659,13.6114286 C145.840576,13.7028571 145.977816,13.8857143 145.977816,14.1257143 L145.977816,14.1257143 Z M135.650492,9.18857143 L140.190855,9.18857143 L138.486789,4.53714286 C138.406732,4.30857143 138.315239,4.04571429 138.212309,3.76 C138.109378,3.46285714 138.017885,3.13142857 137.914955,2.77714286 C137.812025,3.13142857 137.720531,3.46285714 137.629038,3.76 C137.537544,4.06857143 137.446051,4.33142857 137.354557,4.56 L135.650492,9.18857143 L135.650492,9.18857143 Z" id="Shape"></path>
                <path d="M161.09711,10.4914286 C161.09711,11.1657143 160.982744,11.8057143 160.75401,12.3885714 C160.525276,12.9828571 160.182176,13.4971429 159.736145,13.9314286 C159.290115,14.3657143 158.741154,14.72 158.1007,14.9714286 C157.460245,15.2228571 156.716861,15.3485714 155.89342,15.3485714 C155.801926,15.3485714 155.698996,15.3485714 155.584629,15.3371429 C154.246538,15.3371429 152.816952,15.0742857 151.273,14.5485714 L151.273,14.1828571 L151.273,10.6971429 L151.364494,10.6971429 L151.616101,10.6971429 L152.473852,10.6971429 C152.736895,10.6971429 152.897009,10.8228571 152.954192,11.0857143 C152.988502,11.2685714 153.045686,11.84 153.137179,12.8 C153.731887,12.9828571 154.681132,13.0742857 155.973477,13.0742857 C156.774044,13.0742857 157.380189,12.8914286 157.814783,12.5142857 C158.249376,12.1371429 158.466673,11.6 158.466673,10.8914286 C158.466673,10.5028571 158.363743,10.1714286 158.16932,9.93142857 C157.974896,9.69142857 157.711852,9.47428571 157.391625,9.30285714 C157.071398,9.13142857 156.693988,8.99428571 156.282267,8.86857143 C155.85911,8.75428571 155.435953,8.61714286 155.012795,8.48 C154.589638,8.34285714 154.166481,8.17142857 153.743324,7.97714286 C153.331603,7.78285714 152.954192,7.53142857 152.633965,7.22285714 C152.313738,6.91428571 152.050695,6.52571429 151.856271,6.05714286 C151.661847,5.58857143 151.558917,5.01714286 151.558917,4.33142857 C151.558917,3.78285714 151.673284,3.25714286 151.890581,2.73142857 C152.107878,2.21714286 152.428105,1.74857143 152.839826,1.34857143 C153.262983,0.948571429 153.766197,0.628571429 154.383778,0.388571429 C154.989922,0.148571429 155.68756,0.0228571429 156.465254,0.0228571429 C157.940586,0.0228571429 159.370171,0.308571429 160.765447,0.868571429 L160.765447,4.69714286 L160.673953,4.69714286 L160.422346,4.69714286 L159.564595,4.69714286 C159.301551,4.69714286 159.141438,4.57142857 159.084254,4.30857143 C159.049944,4.12571429 158.992761,3.56571429 158.901267,2.62857143 C158.37518,2.4 157.574612,2.27428571 156.488127,2.27428571 C156.09928,2.27428571 155.767616,2.32 155.481699,2.41142857 C155.195782,2.50285714 154.955612,2.64 154.761188,2.8 C154.566765,2.97142857 154.418088,3.16571429 154.315158,3.39428571 C154.223664,3.62285714 154.166481,3.87428571 154.166481,4.16 C154.166481,4.51428571 154.269411,4.81142857 154.463835,5.04 C154.658258,5.28 154.921302,5.47428571 155.241529,5.64571429 C155.561756,5.81714286 155.939167,5.96571429 156.350887,6.09142857 C156.762608,6.21714286 157.185765,6.36571429 157.620359,6.51428571 C158.054953,6.66285714 158.47811,6.83428571 158.889831,7.02857143 C159.301551,7.22285714 159.678962,7.47428571 159.999189,7.77142857 C160.319416,8.06857143 160.58246,8.44571429 160.776883,8.88 C160.99418,9.33714286 161.09711,9.86285714 161.09711,10.4914286 L161.09711,10.4914286 Z" id="Shape"></path>
            </g>
            <g id="Lighthouse-Copy-2" sketch:type="MSShapeGroup">
                <path d="M22.5793975,4.56621005 L22.5793975,2.62557078 L17.247036,0.148401826 C17.040622,0.0570776256 16.8112731,0.0570776256 16.6048591,0.148401826 L11.1119534,2.62557078 L11.1119534,4.56621005 C13.0614189,4.15525114 14.8847425,3.94977169 16.8686103,3.94977169 C18.8410107,3.94977169 20.7446064,4.15525114 22.5793975,4.56621005 L22.5793975,4.56621005 Z" id="Shape"></path>
                <path d="M12.2586978,5.82191781 L12.2586978,15.5022831 C13.9788144,15.7762557 15.2975705,15.9246575 16.8800777,15.9246575 C18.4740525,15.9246575 20.4005831,15.7762557 21.5473275,15.4908676 L21.5473275,5.83333333 C20.4005831,5.55936073 18.4740525,5.4109589 16.8800777,5.4109589 C15.3090379,5.4109589 13.9788144,5.55936073 12.2586978,5.82191781 L12.2586978,5.82191781 Z M20.3088435,10.696347 L18.2676385,11.7351598 L17.2241011,13.7671233 L16.1805637,11.7351598 L14.1393586,10.696347 L16.1805637,9.65753425 L17.2241011,7.62557078 L18.2676385,9.65753425 L20.3088435,10.696347 L20.3088435,10.696347 Z" id="Shape"></path>
                <path d="M17.0979592,20.2283105 C18.772206,20.2283105 20.2859086,20.0684932 21.8913508,19.7488584 L22.5793975,17.5913242 L22.5793975,16.7808219 C20.7446064,17.1917808 18.8295432,17.3972603 16.8686103,17.3972603 C14.8847425,17.3972603 13.0614189,17.1803653 11.1119534,16.7694064 L11.1119534,17.5913242 L12.0293489,19.7374429 C13.6577259,20.0684932 15.4007775,20.2283105 17.0979592,20.2283105 L17.0979592,20.2283105 Z" id="Shape"></path>
                <path d="M32.6822157,12.7968037 L32.3725948,12.7739726 C29.2649174,11.7351598 26.363654,11.0045662 22.5793975,10.5936073 L22.5793975,12.2146119 C26.1343052,12.6141553 28.943829,13.3105023 31.8909621,14.2922374 L32.0973761,14.3150685 C32.0973761,24.5776256 29.25345,33.869863 24.5517979,40.5593607 L21.4441205,21.152968 C19.9533528,21.4041096 18.4511176,21.5410959 16.9144801,21.5410959 C15.3663751,21.5410959 13.8412051,21.4155251 12.3389699,21.152968 L9.21982507,40.4680365 C4.56404276,33.7899543 1.68571429,24.543379 1.67424684,14.326484 L1.65131195,14.303653 C4.65578231,13.2990868 7.54557823,12.5913242 10.7564626,12.2031963 L10.7564626,10.5821918 C7.20155491,10.9817352 4.30029155,11.7237443 1.13527697,12.7853881 L1.11234208,12.8082192 L0.0344023324,13.173516 L0.0458697765,14.326484 C0.0458697765,21.8493151 1.58250729,29.1438356 4.47230321,35.3995434 C5.87133139,38.4360731 7.57998056,41.1872146 9.51797862,43.5502283 C11.5018465,45.9589041 13.7035957,47.93379 16.0773567,49.4406393 L16.9488824,49.9885845 L17.8204082,49.4406393 C20.1941691,47.93379 22.4073858,45.9474886 24.3797862,43.5502283 C26.3292517,41.1872146 27.9461613,38.4360731 29.3451895,35.3995434 C32.2349854,29.1324201 33.6798834,21.8493151 33.6798834,14.3378995 L33.6798834,13.1849315 L32.6822157,12.7968037 L32.6822157,12.7968037 Z" id="Shape"></path>
            </g>
        </g>
    </g>
</svg>